<svg width="160" height="158" viewBox="0 0 160 158" fill="none" xmlns="http://www.w3.org/2000/svg">
<rect x="31" width="129" height="129" rx="45" fill="#FFE7D9"/>
<rect y="29" width="129" height="129" rx="45" fill="#FE7521"/>
<path d="M64.2802 136.44C59.0802 136.44 53.9602 135.52 48.9202 133.68C43.8802 131.76 39.3602 128.88 35.3602 125.04L44.7202 113.52C47.5202 115.92 50.6802 117.8 54.2002 119.16C57.8002 120.52 61.3202 121.2 64.7602 121.2C68.4402 121.2 71.1602 120.52 72.9202 119.16C74.7602 117.8 75.6802 115.96 75.6802 113.64C75.6802 111.96 75.2002 110.64 74.2402 109.68C73.3602 108.64 72.0802 107.72 70.4002 106.92C68.7202 106.12 66.7202 105.24 64.4002 104.28L54.2002 100.08C51.5602 98.88 49.0002 97.36 46.5202 95.52C44.1202 93.6 42.1602 91.28 40.6402 88.56C39.2002 85.76 38.4802 82.44 38.4802 78.6C38.4802 74.28 39.6402 70.4 41.9602 66.96C44.3602 63.44 47.6402 60.64 51.8002 58.56C56.0402 56.4 60.8802 55.32 66.3202 55.32C71.0402 55.32 75.6002 56.16 80.0002 57.84C84.4002 59.52 88.2402 61.96 91.5202 65.16L82.1602 76.56C79.6002 74.64 76.9602 73.16 74.2402 72.12C71.6002 71.08 68.9602 70.56 66.3202 70.56C63.2802 70.56 60.8402 71.2 59.0002 72.48C57.2402 73.68 56.3602 75.4 56.3602 77.64C56.3602 79.16 56.8802 80.48 57.9202 81.6C58.9602 82.64 60.4002 83.56 62.2402 84.36C64.0802 85.08 66.0802 85.92 68.2402 86.88L78.3202 90.96C81.5202 92.24 84.2402 93.84 86.4802 95.76C88.8002 97.68 90.6002 100 91.8802 102.72C93.1602 105.36 93.8002 108.52 93.8002 112.2C93.8002 116.52 92.6402 120.52 90.3202 124.2C88.0002 127.88 84.6402 130.84 80.2402 133.08C75.8402 135.32 70.5202 136.44 64.2802 136.44Z" fill="white"/>
</svg>
